<svg xmlns="http://www.w3.org/2000/svg" width="78" height="22" viewBox="0 0 78 22">
    <g fill="#FFF" fill-rule="evenodd">
        <path d="M41.382 7.434c-1.247 0-2.289.46-3.18 1.408-.566-.91-1.545-1.408-2.78-1.408-1.336 0-2.17.642-2.752 1.296a1.531 1.531 0 0 0-1.511-1.226c-.848 0-1.537.674-1.537 1.503v7.057c0 .829.69 1.502 1.537 1.502s1.537-.673 1.537-1.502v-4.08c0-1.158.541-1.795 1.524-1.795 1.215 0 1.47.976 1.47 1.794v4.081c0 .829.69 1.502 1.537 1.502.848 0 1.538-.673 1.538-1.502v-4.08c0-1.158.54-1.795 1.524-1.795 1.215 0 1.47.976 1.47 1.794v4.081c0 .829.69 1.502 1.537 1.502.848 0 1.537-.673 1.537-1.502v-4.972c0-2.325-1.258-3.658-3.45-3.658M54.122 7.504c-.847 0-1.537.674-1.537 1.503v4.081c0 1.157-.561 1.794-1.58 1.794-1.26 0-1.524-.975-1.524-1.794v-4.08c0-.83-.69-1.504-1.537-1.504s-1.537.674-1.537 1.503v4.936c0 2.314 1.297 3.695 3.469 3.695 1.323 0 2.154-.642 2.735-1.297.133.697.76 1.225 1.511 1.225.848 0 1.537-.674 1.537-1.502V9.007c0-.829-.69-1.503-1.537-1.503M64.868 12.518v.035c0 1.442-.94 2.489-2.235 2.489-1.285 0-2.217-1.047-2.217-2.524 0-1.442.932-2.49 2.217-2.49 1.274 0 2.235 1.071 2.235 2.49m-1.525-5.084c-1.168 0-2.117.418-2.891 1.278V5.55c0-.83-.69-1.503-1.537-1.503s-1.537.674-1.537 1.503v10.513c0 .828.69 1.502 1.537 1.502.727 0 1.337-.49 1.497-1.156.811.836 1.751 1.228 2.931 1.228 3.02 0 4.6-2.558 4.6-5.12 0-3.338-2.314-5.084-4.6-5.084M75.002 13.559v.384c0 .9-.83 1.527-2.017 1.527-.84 0-1.361-.387-1.361-1.045 0-.744.642-1.171 1.761-1.171.574 0 1.143.108 1.617.305m1.826-4.942c-.755-.738-1.901-1.113-3.406-1.113-1.232 0-2.21.158-3.17.51a1.278 1.278 0 0 0-.845 1.19c0 .703.57 1.253 1.3 1.253.148 0 .274-.022.446-.078a6.345 6.345 0 0 1 1.868-.26c1.272 0 1.925.521 1.944 1.552a7.197 7.197 0 0 0-2.235-.335c-2.599 0-4.089 1.165-4.089 3.195v.036c0 1.837 1.408 3.07 3.505 3.07 1.163 0 2.096-.34 2.844-1.038.147.514.662.967 1.439.967.841 0 1.5-.636 1.5-1.448v-4.349c0-1.377-.37-2.437-1.1-3.152M23.54 18.315H3.545v-.248c0-.956-.793-1.732-1.772-1.732S0 17.11 0 18.067V19.8c0 1.094.907 1.98 2.025 1.98h21.516c.978 0 1.771-.776 1.771-1.733 0-.956-.793-1.732-1.771-1.732M11.006 13.063c0-.957-.793-1.733-1.772-1.733-.978 0-1.771.776-1.771 1.733 0 .956.793 1.732 1.771 1.732.979 0 1.772-.776 1.772-1.732M17.85 13.063c0-.957-.793-1.733-1.772-1.733-.978 0-1.772.776-1.772 1.733 0 .956.794 1.732 1.772 1.732.979 0 1.772-.776 1.772-1.732"/>
        <path d="M12.656 0C5.666 0 0 5.54 0 12.375v.248c0 .957.793 1.732 1.772 1.732.978 0 1.772-.775 1.772-1.732v-.248c0-4.921 4.08-8.91 9.112-8.91 5.033 0 9.113 3.989 9.113 8.91v2.228c0 .957.793 1.732 1.772 1.732.978 0 1.771-.775 1.771-1.732v-2.228C25.313 5.54 19.646 0 12.656 0"/>
    </g>
</svg>
