<svg xmlns="http://www.w3.org/2000/svg" width="14" height="17" viewBox="0 0 14 17">
    <g fill="#C5C5C5" fill-rule="evenodd">
        <path d="M12.713 14.984H1.135V4.88h2.61a.568.568 0 0 0 .568-.567V1.135h8.4v13.849zM3.178 2.114v1.632H1.794l1.384-1.632zM13.281 0H3.746a.561.561 0 0 0-.136.018c-.011.002-.02.007-.032.01A.544.544 0 0 0 3.429.1a.557.557 0 0 0-.116.1L.135 3.948a.56.56 0 0 0-.092.157c-.007.018-.01.036-.015.055a.531.531 0 0 0-.022.124c-.001.01-.006.02-.006.03v11.238c0 .314.254.568.567.568h12.714a.568.568 0 0 0 .567-.568V.568A.568.568 0 0 0 13.281 0z"/>
        <path d="M2.825 6.116a.568.568 0 1 0 0 1.135h8.198a.568.568 0 1 0 0-1.135H2.825zM11.023 8.868H2.825a.568.568 0 1 0 0 1.135h8.198a.568.568 0 1 0 0-1.135"/>
    </g>
</svg>
