<svg xmlns="http://www.w3.org/2000/svg" width="16" height="14" viewBox="0 0 16 14">
    <g fill="#C5C5C5" fill-rule="evenodd">
        <path d="M14.807 11.79H2.23v-.156c0-.608-.499-1.1-1.115-1.1-.615 0-1.114.492-1.114 1.1v1.1c0 .694.57 1.257 1.274 1.257h13.533c.616 0 1.115-.493 1.115-1.1 0-.608-.5-1.1-1.115-1.1M7.96.163C3.565.163 0 3.68 0 8.019v.158c0 .607.499 1.1 1.114 1.1.616 0 1.115-.493 1.115-1.1v-.158c0-3.124 2.566-5.656 5.732-5.656 3.165 0 5.732 2.532 5.732 5.656v1.415c0 .607.499 1.1 1.114 1.1.616 0 1.115-.493 1.115-1.1V8.019c0-4.339-3.565-7.856-7.961-7.856"/>
        <path d="M6.852 8.423c0-.608-.499-1.1-1.114-1.1-.616 0-1.115.492-1.115 1.1 0 .607.5 1.1 1.115 1.1s1.114-.493 1.114-1.1M11.299 8.423c0-.608-.5-1.1-1.115-1.1s-1.115.492-1.115 1.1c0 .607.5 1.1 1.115 1.1.616 0 1.115-.493 1.115-1.1"/>
    </g>
</svg>
