<svg xmlns="http://www.w3.org/2000/svg" xmlns:xlink="http://www.w3.org/1999/xlink" width="16" height="16" viewBox="0 0 16 16">
    <defs>
        <path id="a" d="M0 0h15.851V15.85H0z"/>
    </defs>
    <g fill="none" fill-rule="evenodd">
        <mask id="b" fill="#fff">
            <use xlink:href="#a"/>
        </mask>
        <path fill="#C5C5C5" d="M7.926 14.735c-3.567 0-6.496-2.757-6.782-6.251h4.853a2.012 2.012 0 0 0 1.929 1.451c.914 0 1.686-.615 1.928-1.451h4.853c-.286 3.494-3.215 6.25-6.781 6.25zm.893-6.81c0 .493-.401.894-.893.894a.894.894 0 0 1 0-1.787c.492 0 .893.401.893.893zm1.035-.558a2.011 2.011 0 0 0-.645-.986l1.512-3.457a.558.558 0 1 0-1.023-.447L8.186 5.935a2.011 2.011 0 0 0-2.19 1.432H1.145A6.772 6.772 0 0 1 2.75 3.513L3.796 4.56a.557.557 0 0 0 .79 0 .558.558 0 0 0 0-.789L3.54 2.725a6.77 6.77 0 0 1 3.827-1.58V2.63a.558.558 0 0 0 1.117 0V1.145a6.777 6.777 0 0 1 3.829 1.581l-1.045 1.045a.558.558 0 1 0 .79.79l1.045-1.047a6.776 6.776 0 0 1 1.604 3.853H9.854zm3.669-5.061c-.018-.017-.04-.024-.058-.039a7.896 7.896 0 0 0-11.086.007c-.015.012-.034.018-.048.032-.011.011-.016.026-.026.038A7.898 7.898 0 0 0 0 7.925c0 4.37 3.555 7.926 7.926 7.926 4.37 0 7.925-3.555 7.925-7.926 0-2.17-.878-4.138-2.296-5.57-.012-.016-.018-.035-.032-.05z" mask="url(#b)"/>
    </g>
</svg>
