<svg xmlns="http://www.w3.org/2000/svg" width="16" height="16" viewBox="0 0 16 16">
    <path fill="#468EF7" fill-rule="evenodd" d="M13.932 7.364c-.004.001-.009 0-.013.002a1.794 1.794 0 0 1-.159.035c-.06.009-.12.018-.182.018a1.294 1.294 0 0 1-.448-.084c-.01-.004-.02-.005-.029-.01a1.304 1.304 0 0 1-.807-1.103c0-.011-.004-.022-.006-.033 0-.022-.006-.044-.006-.067a.563.563 0 1 0-1.126 0c0 .029-.007.055-.009.083 0 .006-.004.01-.004.016a1.304 1.304 0 0 1-.807 1.105l-.027.008a1.298 1.298 0 0 1-.699.06 1.268 1.268 0 0 1-.198-.059c-.01-.004-.02-.005-.03-.01a1.305 1.305 0 0 1-.807-1.103c0-.01-.004-.02-.005-.03-.001-.024-.007-.046-.007-.07a.563.563 0 1 0-1.126 0c0 .029-.006.055-.008.083l-.005.016a1.304 1.304 0 0 1-.807 1.105l-.027.008a1.29 1.29 0 0 1-.699.06 1.28 1.28 0 0 1-.2-.06c-.008-.003-.018-.004-.027-.008-.442-.18-.768-.601-.807-1.104l-.006-.033c-.001-.022-.007-.044-.007-.067a.563.563 0 1 0-1.126 0c0 .029-.006.056-.008.085 0 .005-.004.009-.004.015a1.305 1.305 0 0 1-.807 1.104c-.01.004-.02.005-.03.01a1.268 1.268 0 0 1-.447.083c-.047 0-.092-.009-.138-.014l-.05-.007c-.012-.002-.024 0-.035-.001a1.296 1.296 0 0 1-1.073-1.275c0-.105.019-.22.059-.359a.576.576 0 0 0 .013-.056l1.65-4.58h10.317l1.594 4.46.013.036.03.084a.492.492 0 0 0 .013.056c.04.139.06.253.06.359 0 .592-.4 1.086-.943 1.242zm-.427 7.51H2.715V8.527c.034-.004.067-.012.1-.017a2.42 2.42 0 0 0 1.466-.837 2.416 2.416 0 0 0 3.719 0 2.418 2.418 0 0 0 3.719 0c.316.38.748.658 1.24.79.012.002.023.006.035.009.056.014.114.025.172.034.033.006.066.013.1.018.045.005.091.008.137.011.034.003.067.008.102.01v6.327zm2.36-9.54l-.035-.096-.014-.04L14.091.373A.563.563 0 0 0 13.56 0H2.453a.562.562 0 0 0-.53.372L.2 5.162c-.011.024-.02.05-.032.085l-.06.168a.537.537 0 0 0-.03.134A2.27 2.27 0 0 0 0 6.122c0 1.044.664 1.933 1.59 2.274v7.04c0 .312.252.564.563.564h11.914c.311 0 .563-.252.563-.563V8.302A2.425 2.425 0 0 0 16 6.122c0-.17-.022-.343-.066-.529a.56.56 0 0 0-.07-.259z"/>
</svg>
