<svg xmlns="http://www.w3.org/2000/svg" width="16" height="16" viewBox="0 0 16 16">
    <g fill="#C5C5C5" fill-rule="evenodd">
        <path d="M15.293 14.462H.558a.558.558 0 0 0 0 1.116h14.735a.558.558 0 1 0 0-1.116M1.128 9.815L7.78 3.163l1.816 1.815-6.652 6.653-1.825.008.01-1.824zm10.283-6.652l-1.026 1.026L8.57 2.374l1.026-1.027 1.815 1.816zM.013 9.58L0 12.198a.56.56 0 0 0 .558.56h.003l2.618-.012c.147-.001.288-.06.392-.164l9.024-9.024a.558.558 0 0 0 0-.79L9.99.164a.558.558 0 0 0-.789 0L7.386 1.979h-.001L.176 9.189a.56.56 0 0 0-.163.392z"/>
    </g>
</svg>
